<svg width="70" height="70" viewBox="0 0 70 70" fill="none" xmlns="http://www.w3.org/2000/svg">
<path fill-rule="evenodd" clip-rule="evenodd" d="M70 35L52.5 70H17.5L0 35L17.5 0L52.5 1.97774e-06L70 35ZM34.7128 29.9972C33.1722 23.6481 30.9384 19.6981 27.9827 18.0037C26.8341 17.3585 25.5613 17 24.2886 17C19.7252 17 16 21.3015 16 26.5708C16 31.8401 19.6942 36.1058 24.2575 36.1058C24.5472 36.1058 24.7792 36.1489 24.9946 36.1889C25.3331 36.2518 25.631 36.3071 26.0483 36.1757C24.403 36.1757 18.8814 29.0733 20.5483 25.2061C21.4822 23.0396 22.4176 23.0461 23.9024 23.0564C24.0076 23.0572 24.1156 23.0579 24.2265 23.0579C24.6921 23.0579 25.1578 23.1655 25.5613 23.4164C26.4926 23.9541 29.659 26.8217 31.1491 41.5185C31.9851 49.6198 31.8735 57.2571 31.8637 57.9254C31.8633 57.952 31.8631 57.9675 31.8631 57.9716L32.2217 57.9813C32.2225 58.0497 32.223 58.0948 32.223 58.115L34.7128 58.0482L37.2026 58.115C37.2026 58.0948 37.2031 58.0497 37.2038 57.9813L37.5624 57.9716L37.5618 57.9254V57.9253C37.552 57.2568 37.4405 49.6197 38.2764 41.5185C39.7665 26.8217 42.9329 23.9541 43.8642 23.4164C44.2678 23.1655 44.7334 23.0579 45.1991 23.0579C45.31 23.0579 45.4179 23.0572 45.5232 23.0564C47.008 23.0461 47.9434 23.0396 48.8772 25.2061C50.5441 29.0733 45.0225 36.1757 43.3772 36.1757C43.7946 36.3071 44.0924 36.2518 44.431 36.1889C44.6464 36.1489 44.8783 36.1058 45.168 36.1058C49.7314 36.1058 53.4255 31.8401 53.4255 26.5708C53.4255 21.3015 49.7003 17 45.137 17C43.8642 17 42.5914 17.3585 41.4428 18.0037C38.4871 19.6981 36.2533 23.6481 34.7128 29.9972Z" fill="#C4C4C4"/>
</svg>
